HIERARCHY
ROOT root
{
	OFFSET 0.000000 0.000000 0.000000
	CHANNELS 6 Xposition Yposition Zposition Zrotation Yrotation Xrotation
	JOINT lhip
	{
		OFFSET 0.058581 -0.082280 -0.017664
		CHANNELS 3 Zrotation Yrotation Xrotation
		JOINT lknee
		{
			OFFSET 0.043451 -0.386469 0.008037
			CHANNELS 3 Zrotation Yrotation Xrotation
			JOINT lankle
			{
				OFFSET -0.014790 -0.426874 -0.037428
				CHANNELS 3 Zrotation Yrotation Xrotation
				JOINT ltoe
				{
					OFFSET 0.041054 -0.060286 0.122042
					CHANNELS 3 Zrotation Yrotation Xrotation
					End Site
					{
						OFFSET 0.000000 0.000000 0.000000
					}
				}
			}
		}
	}
	JOINT rhip
	{
		OFFSET -0.060310 -0.090513 -0.013543
		CHANNELS 3 Zrotation Yrotation Xrotation
		JOINT rknee
		{
			OFFSET -0.043257 -0.383688 -0.004843
			CHANNELS 3 Zrotation Yrotation Xrotation
			JOINT rankle
			{
				OFFSET 0.019056 -0.420046 -0.034562
				CHANNELS 3 Zrotation Yrotation Xrotation
				JOINT rtoe
				{
					OFFSET -0.034840 -0.062106 0.130323
					CHANNELS 3 Zrotation Yrotation Xrotation
					End Site
					{
						OFFSET 0.000000 0.000000 0.000000
					}
				}
			}
		}
	}
	JOINT lowerback
	{
		OFFSET 0.004439 0.124404 -0.038385
		CHANNELS 3 Zrotation Yrotation Xrotation
		JOINT upperback
		{
			OFFSET 0.004488 0.137956 0.026820
			CHANNELS 3 Zrotation Yrotation Xrotation
			JOINT chest
			{
				OFFSET -0.002265 0.056032 0.002855
				CHANNELS 3 Zrotation Yrotation Xrotation
				JOINT lowerneck
				{
					OFFSET -0.013390 0.211636 -0.033468
					CHANNELS 3 Zrotation Yrotation Xrotation
					JOINT upperneck
					{
						OFFSET 0.010113 0.088937 0.050410
						CHANNELS 3 Zrotation Yrotation Xrotation
						End Site
						{
							OFFSET 0.000000 0.000000 0.000000
						}
					}
				}
				JOINT lclavicle
				{
					OFFSET 0.071702 0.114000 -0.018898
					CHANNELS 3 Zrotation Yrotation Xrotation
					JOINT lshoulder
					{
						OFFSET 0.122921 0.045205 -0.019046
						CHANNELS 3 Zrotation Yrotation Xrotation
						JOINT lelbow
						{
							OFFSET 0.255332 -0.015649 -0.022946
							CHANNELS 3 Zrotation Yrotation Xrotation
							JOINT lwrist
							{
								OFFSET 0.265709 0.012698 -0.007375
								CHANNELS 3 Zrotation Yrotation Xrotation
								End Site
								{
									OFFSET 0.000000 0.000000 0.000000
								}
							}
						}
					}
				}
				JOINT rclavicle
				{
					OFFSET -0.082954 0.112472 -0.023707
					CHANNELS 3 Zrotation Yrotation Xrotation
					JOINT rshoulder
					{
						OFFSET -0.113228 0.046853 -0.008472
						CHANNELS 3 Zrotation Yrotation Xrotation
						JOINT relbow
						{
							OFFSET -0.260127 -0.014369 -0.031269
							CHANNELS 3 Zrotation Yrotation Xrotation
							JOINT rwrist
							{
								OFFSET -0.269108 0.006794 -0.006027
								CHANNELS 3 Zrotation Yrotation Xrotation
								End Site
								{
									OFFSET 0.000000 0.000000 0.000000
								}
							}
						}
					}
				}
			}
		}
	}
}
MOTION
Frames: 8
Frame Time: 0.033333
-0.846571 0.445429 0.972520 100.938904 1.726077 112.610438 0.105145 6.365816 -12.705936 0.318274 21.081068 29.715253 -1.911429 19.660996 44.456371 0.000000 -0.000000 0.000000 13.169898 5.724487 -23.012244 -2.797518 -15.356266 -8.852297 -14.436989 -21.922295 0.493873 0.000000 -0.000000 0.000000 0.366604 -2.272672 -11.917776 6.280825 -3.566680 0.194369 2.083420 -3.953222 -8.656372 1.368215 -21.250615 13.256605 4.960029 -5.132976 2.127564 -14.810294 16.891845 -0.224982 -59.565356 2.023150 21.060582 -4.619196 -20.868305 14.671478 -19.223375 3.477372 8.351295 8.542793 -19.677527 -9.756801 54.948472 -1.854735 21.030564 9.373563 4.797795 11.453264 16.228168 -2.273969 -0.469045 
-0.846436 0.445562 0.971947 100.861819 1.544653 112.409762 -0.229303 6.378643 -12.426392 0.170791 20.251141 29.446517 -2.308448 19.596468 44.567124 0.000000 -0.000000 0.000000 12.952785 5.290883 -22.923740 -2.570953 -15.355191 -8.679483 -13.482118 -22.078445 -0.478814 0.000000 -0.000000 0.000000 0.182694 -2.225752 -10.778227 6.039143 -3.282663 -2.332765 2.079532 -4.014774 -7.648476 1.477864 -19.755223 13.267866 5.265906 -3.555689 3.645172 -14.238531 16.835912 0.082293 -59.896787 2.034784 21.380164 -4.723365 -20.530777 15.381897 -17.282212 2.129951 6.053529 8.562575 -19.816125 -9.166693 55.393877 -1.726605 21.255630 8.874678 4.899123 11.964530 12.567849 -1.352688 -0.871700 
-0.845417 0.445448 0.971797 100.623524 1.700540 112.282334 -0.170444 6.627742 -12.121860 -0.203561 19.585958 29.151919 -2.363749 19.549308 44.465447 0.000000 -0.000000 0.000000 13.076400 5.470215 -22.684117 -2.595196 -15.000151 -8.570186 -13.429957 -22.080925 -0.407017 0.000000 -0.000000 0.000000 0.147302 -2.109163 -10.729672 6.090808 -3.117832 -2.386495 2.036847 -3.828795 -8.176753 2.210396 -18.178894 13.049458 4.959624 -2.328187 5.449067 -13.928578 16.968991 0.719080 -60.055885 1.965643 21.147581 -4.663745 -20.516516 15.590020 -15.800613 1.537398 4.750208 8.437167 -19.983020 -8.242597 55.826471 -1.571252 21.229446 8.375529 5.455404 12.650559 9.538115 -0.873243 -1.214248 
-0.843304 0.445381 0.971634 100.014973 1.726545 111.677056 -0.277542 6.909870 -11.003953 -0.439875 19.744416 28.504524 -2.296699 19.785914 44.503015 0.000000 -0.000000 0.000000 13.083057 5.476625 -21.684212 -2.465235 -14.634770 -8.989617 -13.255906 -21.991295 -0.363822 0.000000 -0.000000 0.000000 -0.249425 -1.784661 -10.308967 6.106078 -2.785992 -2.328969 2.063735 -3.731329 -8.394383 3.199432 -15.752712 12.839518 5.377116 -1.236552 6.620083 -13.921269 17.377098 0.450146 -59.992725 2.050662 21.630366 -4.580899 -20.214356 15.592059 -14.647482 -0.198592 2.893100 8.685221 -20.278099 -8.600413 56.444762 -1.622545 22.190180 7.459640 4.956666 12.506620 6.767141 0.091519 -2.179966 
-0.842287 0.445214 0.971512 99.716412 1.773229 111.530133 -0.310992 7.170582 -10.649853 -0.526135 19.740686 28.200200 -2.208636 19.837128 44.718776 0.000000 -0.000000 0.000000 13.059310 5.547214 -21.425523 -2.373589 -14.495478 -8.857301 -13.108433 -21.807970 -0.415312 0.000000 -0.000000 0.000000 -0.471778 -1.647825 -10.267710 6.157045 -2.613385 -2.173505 2.142703 -3.623303 -8.818574 3.801094 -14.361372 12.906713 5.388574 -0.412075 7.454705 -13.633716 17.512576 0.752070 -60.323589 2.140485 21.516023 -4.478855 -20.020061 15.666880 -13.407308 -1.047415 2.190806 8.429184 -20.351591 -8.185667 56.890588 -1.772393 22.319814 7.255131 5.183925 12.160039 4.989429 0.915171 -3.093807 
-0.841361 0.445127 0.971414 99.592682 1.721737 111.703337 -0.440142 7.212587 -10.691094 -0.696113 19.403818 27.894764 -2.245747 19.735524 44.959756 0.000000 -0.000000 0.000000 12.950626 5.771096 -21.530943 -2.428263 -14.555913 -9.149880 -13.548477 -22.145991 -0.092079 0.000000 -0.000000 0.000000 -0.696419 -1.548984 -10.605496 6.198827 -2.508701 -2.043626 2.125035 -3.529012 -9.215795 4.267609 -12.811549 12.874378 5.516688 0.777039 8.433110 -13.232976 17.882231 0.950681 -60.534191 2.189024 21.873789 -4.771238 -19.865160 16.380066 -13.629298 -1.179078 0.466105 8.173706 -20.744136 -7.816830 57.585440 -1.798635 22.668226 6.788595 5.227700 11.322126 3.918832 1.649958 -5.272009 
-0.840717 0.445412 0.971223 99.732541 1.678559 111.771108 -0.478710 7.194254 -10.757356 -0.642218 19.153499 27.878786 -2.339466 19.721982 45.188530 0.000000 -0.000000 0.000000 12.904378 5.759455 -21.553006 -2.431253 -14.746020 -9.203840 -13.421984 -22.232108 -0.271238 0.000000 -0.000000 0.000000 -0.672213 -1.598103 -10.716037 6.167734 -2.489796 -2.055693 2.054549 -3.380225 -9.393800 4.667535 -11.462522 12.694320 5.699321 1.962450 9.040492 -13.045952 18.250196 1.172619 -60.719752 2.056549 22.211658 -5.036220 -19.649403 17.027253 -12.224719 -2.035487 -0.745467 7.759651 -21.319202 -7.414545 58.551477 -1.590380 22.548287 6.468751 4.764990 10.088062 1.747897 2.128550 -7.622286 
-0.840066 0.445545 0.971112 99.897706 1.833020 111.913488 -0.259652 7.142126 -10.950866 -0.495946 19.308224 28.091124 -2.447777 19.483561 44.996355 0.000000 -0.000000 0.000000 13.023802 6.001476 -21.596087 -2.488782 -14.820567 -9.167701 -13.494472 -22.109584 -0.058403 0.000000 -0.000000 0.000000 -0.430855 -1.615277 -10.910196 6.136128 -2.481436 -2.105562 2.022932 -3.272900 -9.411405 5.168333 -10.010996 12.176814 5.845902 2.712582 9.138753 -12.828726 18.062349 1.428123 -61.236515 2.452758 22.249992 -4.705543 -19.419354 17.206156 -11.704002 -2.729536 -1.411387 7.368819 -21.170250 -7.040144 59.358479 -1.861465 22.406916 6.224934 4.415056 8.745256 0.936013 3.341024 -9.807006 
